Patient4_TMGait_0pt4_01_left_34_EMG.mot
version=1
nRows=23
nColumns=33
inDegrees=no
endheader
time	1LAddLong	2LGlutMax	3LGlutMed	4LIliopsoas	5LSemiMemb	6LBicFemLong	7LRecFem	8LVastMed	9LVastLat	10LGasMed	11LTibAnt	12lTibPost	13LPeroneusLong	14LSol	15LExtDigLong	16LFlexDigLong	17RAddLong	18RGlutMax	19RGlutMed	20RIliopsoas	21RSemiMemb	22RBicFemLong	23RRecFem	24RVastMed	25RVastLat	26RGasMed	27RTibAnt	28RTibPost	29RPeroneusLong	30RSol	31RExtDigLong	32RFlexDigLong
42.617	0.009155	-0.10681	0.12161	0.007019	0.006409	0.010071	-0.11276	0.042725	-0.098419	0.028534	0.010986	0.010071	-0.011597	0.018158	0.054932	0.7164	0.004883	0.14633	0.045319	-0.001373	-0.02594	-0.007172	0.41596	-0.051117	0.006561	0.021515	0.72037	-0.00061	0.1506	-0.22354	-0.003662	-0.018311
42.618	0.011597	-0.11261	-0.043488	-0.014343	-0.017395	-0.009308	-0.18814	0.029907	0.048828	0.054016	0.033875	0.006561	-0.046234	0.038452	0.11475	-0.094757	0.012512	0.066681	-0.059662	0.019531	-0.037231	0.005035	0.41122	-0.009003	0.011139	-0.003662	0.6929	-0.00824	-0.010986	-0.11154	-0.003967	-0.021362
42.619	0.003052	-0.13107	-0.022888	-0.00824	-0.057526	0.019684	-0.20783	-0.003357	0.12604	0.034943	0.047607	-0.017548	-0.03067	-0.044403	0.26581	-0.53833	0.013123	0.029602	-0.052338	0.032959	-0.023346	-0.064392	0.41092	0.022888	0.012817	-0.000153	-0.36819	-0.000153	0.07019	-0.034943	0.004272	-0.018921
42.62	-0.005188	-0.076752	0.030365	-0.000916	-0.10483	-0.016632	-0.23926	-0.019989	0.18753	0.016479	0.07843	0.010376	-0.020905	-0.28671	0.027161	0.67734	0.023956	0.017395	-0.069427	0.074615	-0.036011	-0.10071	0.41321	0.026093	0.007324	0.014496	-2.0116	-0.001831	0.42419	-0.16403	0.00824	-0.012665
42.621	-0.005646	0.006714	-0.12085	0.013275	-0.11719	-0.041046	-0.29037	-0.010681	0.1564	-0.007935	0.065308	0.015564	-0.002594	-0.035858	-0.058746	0.28229	-0.005341	0.032196	-0.13046	0.07019	-0.021667	-0.037079	0.38742	0.057983	0.010071	0.015717	-1.9638	-0.002136	0.37918	-0.20493	0.000153	-0.010681
42.622	-0.001831	0.033264	-0.001831	0.004578	0.031586	-0.09552	-0.33142	0.020752	0.11261	-0.041809	-0.072479	-0.014801	0.044403	0.044098	-0.01236	-0.25482	0.003357	0.005035	-0.012207	-0.058136	0.00473	-0.007324	0.41245	0.055695	0.001678	0.010223	-0.11871	-0.00824	0.10284	-0.013885	0.000763	-0.011139
42.623	0.000458	-0.103	0.037842	0.024719	0.10208	-0.13611	-0.39627	0.039063	0.053864	-0.058289	-0.035858	-0.031281	-0.009003	0.14557	0.072021	0.059662	0.01358	-0.042114	0.046387	-0.018158	-0.026093	0.020905	0.43411	0.004883	-0.006714	0.011597	0.99548	0.000458	0.062561	0.030518	0.001373	-0.009613
42.624	0.012512	-0.17807	-0.10559	-0.007019	0.04776	-0.0914	-0.37781	0.022736	-0.086212	-0.10498	-0.015411	-0.015411	0.037994	0.27222	-0.096588	-0.40237	0.042877	-0.1297	0.024261	0.095215	-0.02243	0.10239	0.40512	-0.005493	-0.011444	0.022125	1.0548	-0.000763	0.11047	-0.27283	-0.002289	-0.002441
42.625	0.01358	-0.17303	-0.20798	0.011292	0.00946	-0.025024	-0.32013	0.007477	-0.032654	-0.071716	0.030975	0.009613	-0.026093	0.20889	-0.17502	0.21469	0.019226	-0.15869	-0.012512	0.13336	-0.023041	0.1265	0.43015	-0.011444	-0.007629	0.027771	-0.19379	-0.000305	0.35858	-0.22522	-0.005493	-0.002441
42.626	0.020599	-0.068817	-0.073242	0.027924	-0.011444	0.044098	-0.33447	-0.014191	0.056305	0.11429	-0.014954	0.009613	-0.080872	0.039673	-0.21164	0.2298	-0.001373	-0.13031	0.002441	0.022736	-0.000458	0.13855	0.43243	0.001831	-0.021973	0.001373	-1.1008	-0.008087	0.23819	0.038147	0.000763	-0.005188
42.627	0.021515	-0.045776	-0.093079	-0.005341	-0.02182	0.088196	-0.40009	-0.021515	0.014496	0.059052	-0.011444	-0.012054	-0.12131	-0.13367	-0.12589	-0.078888	0.013428	-0.081787	0.021973	0.041809	0.007019	0.15625	0.4248	-0.029449	-0.015106	-0.006561	-0.55588	-0.007782	0.13306	0.2214	-0.003967	-0.006104
42.628	0.016785	0.032501	0.077515	-0.017395	-0.02594	0.077972	-0.42038	-0.02182	-0.16785	-0.079803	0.087738	-0.17075	-0.10284	-0.30045	-0.076752	-0.09964	-0.004578	-0.11444	0.10056	0.015259	0.023804	0.12436	0.4155	-0.096588	-0.013123	-0.005493	-0.56747	-0.006714	0.084229	0.27924	-0.002136	-0.012665
42.629	0.020905	0.093231	0.17471	-0.011597	-0.04425	0.063324	-0.49423	-0.000916	-0.37827	-0.029907	0.24445	0.091705	-0.059204	-0.42374	0.050354	-0.073242	-0.007477	-0.17456	0.098114	0.016479	0.031586	0.07431	0.38193	-0.082703	-0.015106	0.002747	-0.21927	-0.005951	0.058746	0.19852	-0.003967	-0.013885
42.63	0.014801	0.11276	0.12772	0.004578	-0.004272	0.014191	-0.49484	0	-0.36606	-0.020752	0.27771	0.007172	0.071411	-0.36957	0.18768	0.5249	-0.00061	-0.19073	0.0177	0.005493	0.037537	0.030975	0.41	-0.035858	-0.018158	0.011597	-0.02121	-0.004425	0.10361	0.25909	-0.001526	-0.001831
42.631	0.018005	0.12283	-0.034485	0.011139	0.005493	-0.040894	-0.55222	-0.005341	-0.26504	0.032196	0.1355	-0.019836	0.11719	-0.23819	1.7252	0.12558	0.002594	-0.20233	0.045929	-0.0383	0.059204	-0.021667	0.35019	0.020599	0.002136	0.007019	-0.12054	-0.007629	0.11688	0.30304	-0.002289	-0.00946
42.632	0.007324	0.15488	-0.2153	0.018463	-0.006409	-0.076599	-0.63065	0.017548	-0.16922	0.05722	0.014954	-0.020447	0.088196	-0.12039	0.86823	-0.70831	-0.051422	-0.19394	0.062408	-0.10376	0.076294	-0.13702	0.28564	0.014496	-0.009613	-0.002594	-0.34683	-0.011749	0.10696	0.26184	0.002747	-0.009766
42.633	0.004883	0.11841	-0.28641	0.001221	-0.029449	-0.069122	-0.70633	0.037842	0.053253	0.015564	0.072327	-0.045624	0.051117	0.067291	0.93857	0.043488	-0.042419	-0.21606	-0.041199	-0.094757	0.067902	-0.14038	0.30899	0.010376	-0.007477	-0.003357	-0.23544	-0.008545	0.033722	0.17334	-0.000305	-0.00946
42.634	-0.005493	0.076141	-0.093079	0.021057	-0.021515	-0.014343	-0.73364	0.029144	0.22781	-0.053101	0.050659	-0.020905	-0.027924	0.21011	0.15701	0.11459	-0.013428	-0.22644	-0.093536	-0.058441	0.045013	-0.025787	0.31265	-0.004425	-0.024414	0.004425	-0.033875	-0.001831	0.065155	0.074463	-0.006409	-0.005035
42.635	0.004425	0.097351	-0.1265	0.028229	-0.053406	0.041046	-0.63004	-0.005341	0.38559	-0.10437	-0.006104	-0.012665	0.065308	0.31128	-0.95352	0.040131	0.004883	-0.25207	-0.065765	-0.055847	0.030212	0.03891	0.3067	0.01358	-0.01236	0.002899	-0.36484	-0.008545	0.06424	0.006561	0.000153	-0.015259
42.636	-0.045013	0.077209	-0.071564	0.004425	-0.12405	0.10864	-0.50232	-0.040283	0.3006	-0.057373	-0.46783	-0.015106	0.1265	0.39642	-0.9346	0.020294	-0.000458	-0.26443	-0.028534	0.052032	0.007782	0.0177	0.35217	-0.03067	-0.013275	-0.010681	0.005493	-0.001373	-0.041962	-0.066986	-0.001831	-0.011139
42.637	-0.047302	0.034027	0.007629	-0.005493	-0.15564	0.12299	-0.34927	-0.0383	-0.024719	-0.022888	-0.21713	-0.021057	0.093842	0.2562	-1.2097	-0.17731	-0.032043	-0.28961	0.086823	0.13672	-0.021973	0.020294	0.29037	-0.055847	-0.031738	-0.006866	0.30304	-0.007172	-0.13046	-0.033569	-0.000305	-0.018921
42.638	-0.001831	-0.082245	-0.28839	-0.017548	-0.042267	0.045624	-0.35095	-0.005341	-0.13443	-0.034943	-0.044861	-0.020752	0.077972	0.071716	-1.2996	0.068817	-0.031128	-0.27863	0.2211	0.16098	-0.049438	0.065918	0.30655	-0.024261	-0.019531	-0.006866	0.62225	0.001068	-0.079498	0.04364	-0.004883	-0.018311
42.639	-0.001831	-0.16007	-0.3122	-0.002899	0.13611	0	-0.41611	-0.007782	-0.064392	-0.042877	-0.047455	-0.027771	-0.013428	-0.079803	-0.71228	0.15015	-0.038757	-0.33981	0.13748	0.1294	-0.065918	0.068054	0.30472	-0.08316	-0.031128	0.005188	0.62302	-0.005646	-0.007477	-0.070496	-0.005646	-0.011597
